<svg data-v-082864e9="" viewBox="0 0 300 300" xmlns="http://www.w3.org/2000/svg">
  <path d="M 69.512 267.739 L 233.955 267.739 L 197.701 167.375 L 105.79 167.375 L 69.512 267.739 Z" style="fill-rule: nonzero; fill: rgb(102, 153, 204);" stroke="none"/>
  <path d="M 201.417 73.872 L 201.417 28.124 L 209.138 28.124 C 217.386 28.124 224.06 21.953 224.06 14.062 C 224.06 6.175 217.386 0 209.138 0 L 94.327 0 C 86.086 0 79.403 6.173 79.403 14.062 C 79.403 21.951 86.084 28.124 94.327 28.124 L 103.468 28.124 L 103.468 73.872 L 30 275.837 L 30 276.567 C 30 284.158 35.122 290.172 40.515 294.202 C 45.98 298.325 53.786 300 61.149 300 L 242.337 300 C 249.677 300 255.774 298.325 261.211 294.202 C 266.628 290.172 270 284.158 270 276.567 L 270 275.823 L 201.417 73.872 Z M 55.887 276.567 L 127.951 73.872 L 127.951 28.124 L 176.936 28.124 L 176.936 73.872 L 248.435 276.594 L 55.887 276.567 Z" style="fill: rgb(51, 102, 153);" stroke="none"/>
</svg>